<?xml version="1.0" encoding="utf-8"?>
<!-- Generator: Adobe Illustrator 21.0.2, SVG Export Plug-In . SVG Version: 6.00 Build 0)  -->
<svg version="1.1" id="Layer_1" xmlns="http://www.w3.org/2000/svg" xmlns:xlink="http://www.w3.org/1999/xlink" x="0px" y="0px"
	 viewBox="0 0 100 100" style="enable-background:new 0 0 100 100;" xml:space="preserve">
<path d="M35,19.9C35,11.7,41.7,5,50,5c8.3,0,15,6.7,15,14.9c0,4.6-2.1,8.9-5.8,11.8c-0.1,0-0.1,0.1-0.2,0.1
	c-0.2,0.2-0.7,0.9-1.1,1.6c-0.5,1-1.7,1.4-2.7,0.9c-1-0.5-1.4-1.7-0.9-2.7c0.3-0.6,1.2-2.4,2.4-3.2c2.6-2.1,4.1-5.2,4.1-8.6
	C61,13.9,56.1,9,50,9s-11,4.9-11,10.9c0,3.3,1.5,6.5,4.1,8.5c1.2,0.8,2.2,2.7,2.4,3.2c0.5,1,0.7,2,0.9,2.8l9.5,2.3
	c1.1,0.3,1.7,1.3,1.5,2.4c-0.2,0.9-1,1.5-1.9,1.5c-0.2,0-0.3,0-0.5-0.1L44,38c-1-0.2-1.6-1.2-1.5-2.1c0,0,0.1-1.2-0.6-2.5
	c-0.3-0.7-0.9-1.5-1.1-1.7c-0.1,0-0.1-0.1-0.1-0.1C37.1,28.8,35,24.5,35,19.9z M45.6,40.8c-1.1-0.3-2.2,0.4-2.4,1.5
	c-0.3,1.1,0.4,2.2,1.5,2.4l9.4,2.2c0.2,0,0.3,0.1,0.5,0.1c0.9,0,1.7-0.6,1.9-1.5c0.3-1.1-0.4-2.2-1.5-2.4L45.6,40.8z M55.8,21.4
	c0.3-0.7,0.3-1.5-0.2-2.1l-4-5.3c-0.7-0.9-1.9-1.1-2.8-0.4c-0.9,0.7-1.1,1.9-0.4,2.8l1.6,2.1h-4c-0.8,0-1.5,0.4-1.8,1.1
	c-0.3,0.7-0.3,1.5,0.2,2.1l4,5.3c0.4,0.5,1,0.8,1.6,0.8c0.4,0,0.8-0.1,1.2-0.4c0.9-0.7,1.1-1.9,0.4-2.8L50,22.5h4
	C54.8,22.5,55.5,22.1,55.8,21.4z M86.6,68.5c-0.4,0.5-1,0.8-1.6,0.8h-6.8V93c0,1.1-0.9,2-2,2H23.8c-1.1,0-2-0.9-2-2V69.4H15
	c-0.6,0-1.3-0.3-1.6-0.8c-0.4-0.5-0.5-1.2-0.2-1.8l5.8-16.4c0.3-0.8,1-1.3,1.9-1.3H50h29.2c0.8,0,1.6,0.5,1.9,1.3l5.8,16.4
	C87.1,67.3,87,68,86.6,68.5z M17.8,65.4h26.7L47.5,53H22.2L17.8,65.4z M74.2,69.4H53.9c-0.9,0-1.7-0.6-1.9-1.5L50,59.7l-1.9,8.2
	c-0.2,0.9-1,1.5-1.9,1.5H25.8V91h48.5V69.4z M82.2,65.4L77.8,53H52.5l2.9,12.4H82.2z"/>
</svg>
