<?xml version="1.0" encoding="utf-8"?>
<!-- Generator: Adobe Illustrator 21.0.2, SVG Export Plug-In . SVG Version: 6.00 Build 0)  -->
<svg version="1.1" id="Layer_1" xmlns="http://www.w3.org/2000/svg" xmlns:xlink="http://www.w3.org/1999/xlink" x="0px" y="0px"
	 viewBox="0 0 100 100" style="enable-background:new 0 0 100 100;" xml:space="preserve">
<path d="M80,24.5H69c-0.3-9.4-8.1-17-17.6-17h-2.8c-9.5,0-17.3,7.6-17.6,17H20c-8.3,0-15,6.7-15,15v38c0,8.3,6.7,15,15,15h60
	c8.3,0,15-6.7,15-15v-38C95,31.2,88.3,24.5,80,24.5z M48.6,13.5h2.8c6.2,0,11.3,4.9,11.6,11H37C37.4,18.4,42.4,13.5,48.6,13.5z
	 M89,77.5c0,5-4,9-9,9H20c-5,0-9-4-9-9v-28h25v4c0,4.4,3.6,8,8,8h12c4.4,0,8-3.6,8-8v-4h25V77.5z M40,53.5v-4h20v4c0,2.2-1.8,4-4,4
	H44C41.8,57.5,40,55.7,40,53.5z M89,45.5H11v-6c0-5,4-9,9-9h60c5,0,9,4,9,9V45.5z"/>
</svg>
