<?xml version="1.0" encoding="utf-8"?>
<!-- Generator: Adobe Illustrator 21.0.2, SVG Export Plug-In . SVG Version: 6.00 Build 0)  -->
<svg version="1.1" id="Layer_1" xmlns="http://www.w3.org/2000/svg" xmlns:xlink="http://www.w3.org/1999/xlink" x="0px" y="0px"
	 viewBox="0 0 100 100" style="enable-background:new 0 0 100 100;" xml:space="preserve">
<path d="M81.9,29.4c0-0.1,0-0.2-0.1-0.3c0-0.1,0-0.2-0.1-0.3c0-0.1-0.1-0.2-0.2-0.3c0-0.1-0.1-0.2-0.1-0.2c-0.1-0.2-0.2-0.3-0.4-0.5
	l-22-22c-0.1-0.1-0.3-0.3-0.5-0.4c-0.1,0-0.1-0.1-0.2-0.1c-0.1-0.1-0.2-0.1-0.3-0.2c-0.1,0-0.2-0.1-0.3-0.1c-0.1,0-0.2-0.1-0.3-0.1
	C57.4,5,57.2,5,57,5H24.6C21,5,18,8,18,11.7v76.5c0,3.7,3,6.7,6.6,6.7h50.8c3.7,0,6.6-3,6.6-6.7V30C82,29.8,82,29.6,81.9,29.4z
	 M60,15.2L71.8,27H60V15.2z M76,88.3c0,0.4-0.3,0.7-0.6,0.7H24.6c-0.3,0-0.6-0.3-0.6-0.7V11.7c0-0.4,0.3-0.7,0.6-0.7H54v19
	c0,1.7,1.3,3,3,3h19V88.3z M32,26c0-1.1,0.9-2,2-2h10c1.1,0,2,0.9,2,2c0,1.1-0.9,2-2,2H34C32.9,28,32,27.1,32,26z M34,40h32
	c1.1,0,2,0.9,2,2c0,1.1-0.9,2-2,2H34c-1.1,0-2-0.9-2-2C32,40.9,32.9,40,34,40z M68,58c0,1.1-0.9,2-2,2H34c-1.1,0-2-0.9-2-2
	c0-1.1,0.9-2,2-2h32C67.1,56,68,56.9,68,58z M68,74c0,1.1-0.9,2-2,2H34c-1.1,0-2-0.9-2-2c0-1.1,0.9-2,2-2h32C67.1,72,68,72.9,68,74z
	"/>
</svg>
