<?xml version="1.0" encoding="utf-8"?>
<!-- Generator: Adobe Illustrator 21.0.2, SVG Export Plug-In . SVG Version: 6.00 Build 0)  -->
<svg version="1.1" id="Layer_1" xmlns="http://www.w3.org/2000/svg" xmlns:xlink="http://www.w3.org/1999/xlink" x="0px" y="0px"
	 viewBox="0 0 100 100" style="enable-background:new 0 0 100 100;" xml:space="preserve">
<path d="M85,5c-4.4,0-8,3.6-8,8v71h0c0,0.5,0.1,1.1,0.5,1.6l5,8c0,0,0,0,0,0.1c0.1,0.2,0.3,0.4,0.5,0.5c0,0,0.1,0,0.1,0.1
	c0.1,0.1,0.2,0.2,0.4,0.3c0,0,0.1,0,0.1,0.1c0,0,0.1,0,0.1,0.1c0.2,0.1,0.4,0.2,0.6,0.2c0,0,0,0,0.1,0C84.5,95,84.8,95,85,95
	s0.5,0,0.7-0.1c0,0,0,0,0.1,0c0.2-0.1,0.4-0.1,0.6-0.2c0,0,0.1,0,0.1-0.1c0,0,0.1,0,0.1-0.1c0.1-0.1,0.3-0.2,0.4-0.3
	c0,0,0.1,0,0.1-0.1c0.2-0.2,0.3-0.3,0.5-0.5c0,0,0,0,0-0.1l5-8c0.3-0.5,0.5-1,0.5-1.6h0V13C93,8.6,89.4,5,85,5z M87,83.1l-2,3.2
	l-2-3.2V23h4V83.1z M87,19h-4v-6c0-1.1,0.9-2,2-2s2,0.9,2,2V19z M65,5H18c-3.3,0-6,2.7-6,6v8h-2c-1.7,0-3,1.3-3,3c0,1.7,1.3,3,3,3h2
	v8h-2c-1.7,0-3,1.3-3,3c0,1.7,1.3,3,3,3h2v8h-2c-1.7,0-3,1.3-3,3c0,1.7,1.3,3,3,3h2v8h-2c-1.7,0-3,1.3-3,3c0,1.7,1.3,3,3,3h2v8h-2
	c-1.7,0-3,1.3-3,3c0,1.7,1.3,3,3,3h2v8c0,3.3,2.7,6,6,6h47c3.3,0,6-2.7,6-6V11C71,7.7,68.3,5,65,5z M55,89H18v-8h2c1.7,0,3-1.3,3-3
	c0-1.7-1.3-3-3-3h-2v-8h2c1.7,0,3-1.3,3-3c0-1.7-1.3-3-3-3h-2v-8h2c1.7,0,3-1.3,3-3c0-1.7-1.3-3-3-3h-2v-8h2c1.7,0,3-1.3,3-3
	c0-1.7-1.3-3-3-3h-2v-8h2c1.7,0,3-1.3,3-3c0-1.7-1.3-3-3-3h-2v-8h37V89z M65,89h-6V11h6V89z"/>
</svg>
